<svg width="17" height="24" viewBox="0 0 17 24" fill="none" xmlns="http://www.w3.org/2000/svg">
<path d="M8.25 1.48657H4.75C3.82174 1.48657 2.9315 1.85532 2.27513 2.5117C1.61875 3.16808 1.25 4.05831 1.25 4.98657C1.25 5.91483 1.61875 6.80507 2.27513 7.46145C2.9315 8.11782 3.82174 8.48657 4.75 8.48657M8.25 1.48657V8.48657M8.25 1.48657H11.75C12.2096 1.48657 12.6648 1.5771 13.0894 1.75299C13.514 1.92889 13.8999 2.18669 14.2249 2.5117C14.5499 2.8367 14.8077 3.22254 14.9836 3.64718C15.1595 4.07182 15.25 4.52695 15.25 4.98657C15.25 5.4462 15.1595 5.90132 14.9836 6.32596C14.8077 6.7506 14.5499 7.13644 14.2249 7.46145C13.8999 7.78645 13.514 8.04426 13.0894 8.22015C12.6648 8.39604 12.2096 8.48657 11.75 8.48657M8.25 8.48657H4.75M8.25 8.48657H11.75M8.25 8.48657V15.4866M4.75 8.48657C3.82174 8.48657 2.9315 8.85532 2.27513 9.5117C1.61875 10.1681 1.25 11.0583 1.25 11.9866C1.25 12.9148 1.61875 13.8051 2.27513 14.4614C2.9315 15.1178 3.82174 15.4866 4.75 15.4866M11.75 8.48657C11.2904 8.48657 10.8352 8.5771 10.4106 8.75299C9.98597 8.92889 9.60013 9.18669 9.27513 9.5117C8.95012 9.8367 8.69231 10.2225 8.51642 10.6472C8.34053 11.0718 8.25 11.5269 8.25 11.9866C8.25 12.4462 8.34053 12.9013 8.51642 13.326C8.69231 13.7506 8.95012 14.1364 9.27513 14.4614C9.60013 14.7865 9.98597 15.0443 10.4106 15.2202C10.8352 15.396 11.2904 15.4866 11.75 15.4866C12.2096 15.4866 12.6648 15.396 13.0894 15.2202C13.514 15.0443 13.8999 14.7865 14.2249 14.4614C14.5499 14.1364 14.8077 13.7506 14.9836 13.326C15.1595 12.9013 15.25 12.4462 15.25 11.9866C15.25 11.5269 15.1595 11.0718 14.9836 10.6472C14.8077 10.2225 14.5499 9.8367 14.2249 9.5117C13.8999 9.18669 13.514 8.92889 13.0894 8.75299C12.6648 8.5771 12.2096 8.48657 11.75 8.48657ZM4.75 15.4866C3.82174 15.4866 2.9315 15.8553 2.27513 16.5117C1.61875 17.1681 1.25 18.0583 1.25 18.9866C1.25 19.9148 1.61875 20.8051 2.27513 21.4614C2.9315 22.1178 3.82174 22.4866 4.75 22.4866C5.67826 22.4866 6.5685 22.1178 7.22487 21.4614C7.88125 20.8051 8.25 19.9148 8.25 18.9866V15.4866M4.75 15.4866H8.25" stroke="#7800B7" stroke-width="2" stroke-linecap="round" stroke-linejoin="round"/>
</svg>
