<svg width="22" height="24" viewBox="0 0 22 24" fill="none" xmlns="http://www.w3.org/2000/svg">
<path d="M8.25 19.5134C3.25 21.0134 3.25 17.0134 1.25 16.5134M15.25 22.5134V18.6434C15.2875 18.1665 15.2231 17.6872 15.061 17.2372C14.8989 16.7871 14.6429 16.3768 14.31 16.0334C17.45 15.6834 20.75 14.4934 20.75 9.03337C20.7497 7.63719 20.2127 6.29456 19.25 5.28337C19.7059 4.06187 19.6736 2.71171 19.16 1.51337C19.16 1.51337 17.98 1.16337 15.25 2.99337C12.958 2.37219 10.542 2.37219 8.25 2.99337C5.52 1.16337 4.34 1.51337 4.34 1.51337C3.82638 2.71171 3.79414 4.06187 4.25 5.28337C3.28013 6.30206 2.74252 7.65683 2.75 9.06337C2.75 14.4834 6.05 15.6734 9.19 16.0634C8.861 16.4033 8.60726 16.8088 8.44531 17.2533C8.28335 17.6978 8.21681 18.1714 8.25 18.6434V22.5134" stroke="#7800B7" stroke-width="2" stroke-linecap="round" stroke-linejoin="round"/>
</svg>
