<svg width="23" height="22" viewBox="0 0 23 22" fill="none" xmlns="http://www.w3.org/2000/svg">
<path fill-rule="evenodd" clip-rule="evenodd" d="M15.25 8.48657C13.9239 8.48657 12.6521 9.01336 11.7145 9.95104C10.7768 10.8887 10.25 12.1605 10.25 13.4866V19.4866H12.25V13.4866C12.25 12.6909 12.5661 11.9279 13.1287 11.3653C13.6913 10.8026 14.4543 10.4866 15.25 10.4866C16.0457 10.4866 16.8087 10.8026 17.3713 11.3653C17.9339 11.9279 18.25 12.6909 18.25 13.4866V19.4866H20.25V13.4866C20.25 12.1605 19.7232 10.8887 18.7855 9.95104C17.8479 9.01336 16.5761 8.48657 15.25 8.48657ZM15.25 6.48657C13.3935 6.48657 11.613 7.22407 10.3003 8.53683C8.9875 9.84958 8.25 11.6301 8.25 13.4866V20.4866C8.25 21.0389 8.69772 21.4866 9.25 21.4866H13.25C13.8023 21.4866 14.25 21.0389 14.25 20.4866V13.4866C14.25 13.2214 14.3554 12.967 14.5429 12.7795C14.7304 12.5919 14.9848 12.4866 15.25 12.4866C15.5152 12.4866 15.7696 12.5919 15.9571 12.7795C16.1446 12.967 16.25 13.2214 16.25 13.4866V20.4866C16.25 21.0389 16.6977 21.4866 17.25 21.4866H21.25C21.8023 21.4866 22.25 21.0389 22.25 20.4866V13.4866C22.25 11.6301 21.5125 9.84958 20.1997 8.53683C18.887 7.22407 17.1065 6.48657 15.25 6.48657Z" fill="#7800B7"/>
<path fill-rule="evenodd" clip-rule="evenodd" d="M0.25 8.48657C0.25 7.93429 0.697715 7.48657 1.25 7.48657H5.25C5.80228 7.48657 6.25 7.93429 6.25 8.48657V20.4866C6.25 21.0389 5.80228 21.4866 5.25 21.4866H1.25C0.697715 21.4866 0.25 21.0389 0.25 20.4866V8.48657ZM2.25 9.48657V19.4866H4.25V9.48657H2.25Z" fill="#7800B7"/>
<path fill-rule="evenodd" clip-rule="evenodd" d="M3.25 2.48657C2.69772 2.48657 2.25 2.93429 2.25 3.48657C2.25 4.03886 2.69772 4.48657 3.25 4.48657C3.80228 4.48657 4.25 4.03886 4.25 3.48657C4.25 2.93429 3.80228 2.48657 3.25 2.48657ZM0.25 3.48657C0.25 1.82972 1.59315 0.486572 3.25 0.486572C4.90685 0.486572 6.25 1.82972 6.25 3.48657C6.25 5.14343 4.90685 6.48657 3.25 6.48657C1.59315 6.48657 0.25 5.14343 0.25 3.48657Z" fill="#7800B7"/>
</svg>
